<svg width="600" height="600" viewBox="0 0 600 600" fill="none" xmlns="http://www.w3.org/2000/svg">
<rect width="600" height="600" fill="black"/>
<path d="M336.116 180.612C336.193 180.769 336.293 180.974 336.41 181.213C336.691 181.785 337.074 182.559 337.478 183.361C337.881 184.163 338.308 184.996 338.678 185.688C339.016 186.322 339.332 186.88 339.54 187.173L402.973 303.379L403.507 304.358L404.046 303.382L468.18 187.153L468.191 187.132C468.422 186.673 469.276 184.957 470.072 183.358C470.471 182.558 470.855 181.787 471.14 181.216C471.26 180.975 471.362 180.769 471.44 180.612H512.888V419.388H467.911V272.914L466.759 272.625L422.974 354.216C422.401 355.241 421.276 357.209 420.292 358.924C419.8 359.781 419.344 360.574 419.012 361.152C418.862 361.412 418.737 361.628 418.646 361.788H388.761C388.667 361.628 388.54 361.411 388.388 361.149C388.051 360.571 387.59 359.778 387.093 358.922C386.101 357.211 384.968 355.251 384.395 354.225H384.396L340.604 272.625L339.453 272.914V419.388H294.612V180.612H336.116Z" fill="white" stroke="white" stroke-width="1.22449"/>
<path fill-rule="evenodd" clip-rule="evenodd" d="M86 180H271V420H86V180ZM224.75 229.044H132.25V370.405H224.75V229.044Z" fill="white"/>
</svg>
